# AST/ASF file generated using VICON BodyLanguage
# -----------------------------------------------
:version 1.10
:name VICON
:units
  mass 1.0
  length 0.45
  angle deg
:documentation
   .ast/.asf automatically generated from VICON data using
   VICON BodyBuilder and BodyLanguage model FoxedUp or BRILLIANT.MOD
:root
   order TX TY TZ RX RY RZ
   axis XYZ
   position 0 0 0  
   orientation 0 0 0 
:bonedata
  begin
     id 1 
     name lhipjoint
     direction 0.621036 -0.695554 0.361275 
     length 2.46325 
     axis 0 0 0  XYZ
  end
  begin
     id 2 
     name lfemur
     direction 0.34202 -0.939693 0  
     length 6.54784  
     axis 0 0 20  XYZ
    dof rx ry rz
    limits (-160.0 20.0)
           (-70.0 70.0)
           (-60.0 70.0)
  end
  begin
     id 3 
     name ltibia
     direction 0.34202 -0.939693 0   
     length 7.84737   
     axis 0 0 20   XYZ
    dof rx
    limits (-10.0 170.0)
  end
  begin
     id 4 
     name lfoot
     direction 0.0790693 -0.217241 0.97291   
     length 2.59747   
     axis -90 7.62852e-016 20   XYZ
    dof rx rz
    limits (-45.0 90.0)
           (-70.0 20.0)
  end
  begin
     id 5 
     name ltoes
     direction 1.53572e-011 -4.21898e-011 1   
     length 1.29919   
     axis -90 7.62852e-016 20   XYZ
    dof rx
    limits (-90.0 20.0)
  end
  begin
     id 6 
     name rhipjoint
     direction -0.602353 -0.708375 0.367935   
     length 2.41867  
     axis 0 0 0  XYZ 
  end
  begin
     id 7 
     name rfemur
     direction -0.34202 -0.939693 0   
     length 6.92065   
     axis 0 0 -20   XYZ
    dof rx ry rz
    limits (-160.0 20.0)
           (-70.0 70.0)
           (-70.0 60.0)
  end
  begin
     id 8 
     name rtibia
     direction -0.34202 -0.939693 0   
     length 7.88883   
     axis 0 0 -20   XYZ
    dof rx
    limits (-10.0 170.0)
 end
 begin
     id 9 
     name rfoot
     direction -0.0768692 -0.211196 0.974416   
     length 2.43714  
     axis -90 -7.62852e-016 -20   XYZ
    dof rx rz
    limits (-45.0 90.0)
           (-20.0 70.0)
  end
  begin
     id 10 
     name rtoes
     direction -1.53575e-011 -4.21933e-011 1   
     length 1.22113   
     axis -90 -7.62852e-016 -20   XYZ
    dof rx
    limits (-90.0 20.0)
  end
  begin
     id 11 
     name lowerback
     direction 0.0197937 0.98943 -0.143655   
     length 2.16931   
     axis 0 0 0   XYZ
    dof rx ry rz
    limits (-20.0 45.0)
           (-30.0 30.0)
           (-30.0 30.0)
  end
  begin
     id 12 
     name upperback
     direction -0.00183968 0.999975 0.00684288   
     length 2.17221   
     axis 0 0 0   XYZ
    dof rx ry rz
    limits (-20.0 45.0)
           (-30.0 30.0)
           (-30.0 30.0)
  end
  begin
     id 13 
     name thorax
     direction -0.00950244 0.997208 0.0740685   
     length 2.22549   
     axis 0 0 0   XYZ
    dof rx ry rz
    limits (-20.0 45.0)
           (-30.0 30.0)
           (-30.0 30.0)
  end
  begin
     id 14 
     name lowerneck
     direction 0.0218238 0.996215 0.0841425   
     length 1.77269   
     axis 0 0 0   XYZ
    dof rx ry rz
    limits (-20.0 45.0)
           (-30.0 30.0)
           (-30.0 30.0)
  end
  begin
     id 15 
     name upperneck
     direction -0.00430652 0.994214 -0.107332   
     length 1.76534   
     axis 0 0 0   XYZ
    dof rx ry rz
    limits (-20.0 45.0)
           (-30.0 30.0)
           (-30.0 30.0)
  end
  begin
     id 16
     name head
     direction -0.00328946 0.998959 -0.0454998  
     length 1.82634  
     axis 0 0 0   XYZ
    dof rx ry rz
    limits (-20.0 45.0)
           (-30.0 30.0)
           (-30.0 30.0)
  end
  begin
     id 17 
     name lclavicle
     direction 0.970962 0.239191 0.00450212  
     length 3.84872  
     axis 0 0 0   XYZ
    dof ry rz
    limits (-20.0 10.0)
           (0.0 20.0)
  end
  begin
     id 18 
     name lhumerus
     direction 1 -4.48966e-011 5.74696e-028   
     length 5.22771   
     axis 180 -30 -90   XYZ
    dof rx ry rz
    limits (-60.0 90.0)
           (-90.0 90.0)
           (-90.0 90.0)
  end
  begin
     id 19
     name lradius
     direction 1 -4.4896e-011 4.25109e-027   
     length 3.45251   
     axis 180 -30 -90   XYZ
    dof rx
    limits (-10.0 170.0)
  end
  begin
     id 20
     name lwrist
     direction 1 -4.48971e-011 1.15382e-027   
     length 1.72626   
     axis -5.52449e-016 90 90   XYZ
    dof ry
    limits (-180.0 0.0)
 end
  begin
     id 21 
     name lhand
     direction 1 -4.49034e-011 2.30765e-027   
     length 0.552119   
     axis -1.47248e-015 90 90   XYZ
    dof rx rz
    limits (-90.0 90.0)
           (-45.0 45.0)
  end
  begin
     id 22 
     name lfingers
     direction 1 -4.48951e-011 4.61529e-027   
     length 0.445133   
     axis -2.94495e-015 90 90   XYZ
    dof rx
    limits (0.0 90.0)
  end
  begin
     id 23
     name lthumb
     direction 0.707107 -6.34991e-011 0.707107   
     length 0.639124   
     axis -90 45 2.85299e-015   XYZ
    dof rx rz
    limits (-45.0 45.0)
           (-45.0 45.0)
  end
  begin
     id 24 
     name rclavicle
     direction -0.97424 0.222511 -0.0366699   
     length 3.73439  
     axis 0 0 0   XYZ 
    dof ry rz
    limits (-10.0 20.0)
           (-20.0 0.0)
  end
  begin
     id 25 
     name rhumerus
     direction -1 -4.48956e-011 -4.97258e-028  
     length 5.2398   
     axis 180 30 90   XYZ
    dof rx ry rz
    limits (-90.0 60.0)
           (-90.0 90.0)
           (-90.0 90.0)
  end
  begin
     id 26 
     name rradius
     direction -1 -4.4897e-011 -1.72611e-027   
     length 3.48042   
     axis 180 30 90   XYZ
    dof rx
    limits (-10.0 170.0)
  end
  begin
     id 27 
     name rwrist
     direction -1 -4.48976e-011 1.15382e-027   
     length 1.74021   
     axis -5.52449e-016 -90 -90   XYZ
    dof ry
    limits (-180.0 0.0)
  end
  begin
     id 28
     name rhand
     direction -1 -4.48963e-011 2.30765e-027   
     length 0.618713   
     axis -1.47248e-015 -90 -90   XYZ
    dof rx rz
    limits (-90.0 90.0)
           (-45.0 45.0)
  end
  begin
     id 29
     name rfingers
     direction -1 -4.4888e-011 4.61529e-027   
     length 0.498823   
     axis -2.94495e-015 -90 -90   XYZ
    dof rx
    limits (0.0 90.0)
  end
  begin
     id 30
     name rthumb
     direction -0.707107 -6.34968e-011 0.707107   
     length 0.716213   
     axis -90 -45 -2.85299e-015   XYZ
    dof rx rz
    limits (-45.0 45.0)
           (-45.0 45.0)
  end
:hierarchy
  begin
    root lhipjoint rhipjoint lowerback
    lhipjoint lfemur
    lfemur ltibia
    ltibia lfoot
    lfoot ltoes
    rhipjoint rfemur
    rfemur rtibia
    rtibia rfoot
    rfoot rtoes
    lowerback upperback
    upperback thorax
    thorax lowerneck lclavicle rclavicle
    lowerneck upperneck
    upperneck head
    lclavicle lhumerus
    lhumerus lradius
    lradius lwrist
    lwrist lhand lthumb
    lhand lfingers
    rclavicle rhumerus
    rhumerus rradius
    rradius rwrist
    rwrist rhand rthumb
    rhand rfingers
  end

#!OML:ASF G:\JayActor3\Patient Classification 1\Patient 1\Session 5\male.ASF
:FULLY-SPECIFIED
:DEGREES
150
root 46.8984 16.6704 -4.40449 -99.5016 87.9189 -135.347
lowerback 22.0786 -1.13228 1.3641
upperback 4.22785 -0.859685 0.237324
thorax -7.71789 -0.325308 -0.295473
lowerneck 3.33117 -0.345466 1.97255
upperneck -19.3841 0.360245 1.38257
head -6.43105 0.114272 0.0659242
rclavicle 1.39149e-015 -7.15625e-015
rhumerus -27.0121 2.42748 -88.6909
rradius 35.4746
rwrist -4.5621
rhand -21.8312 -6.90859
rfingers 7.12502
rthumb 4.57175 -36.8393
lclavicle 1.39149e-015 -7.15625e-015
lhumerus -28.6217 -8.16025 87.5154
lradius 39.1321
lwrist 25.5371
lhand -20.4132 9.08962
lfingers 7.12502
lthumb 5.94092 38.9863
rfemur -56.6071 5.4727 16.4772
rtibia 34.3447
rfoot -13.6265 -15.5528
rtoes 9.12351
lfemur -46.8099 4.7357 -21.4953
ltibia 15.8034
lfoot -2.89 2.34821
ltoes -8.31627
151
root 46.897 16.6704 -4.40462 -99.8409 87.8936 -135.694
lowerback 22.1029 -1.14162 1.36592
upperback 4.23361 -0.869159 0.248189
thorax -7.72435 -0.329418 -0.281831
lowerneck 3.3353 -0.3321 1.97424
upperneck -19.3965 0.380265 1.38404
head -6.4357 0.123955 0.0647662
rclavicle -1.17283e-014 6.36111e-015
rhumerus -27.0155 2.43333 -88.7038
rradius 35.4628
rwrist -4.54957
rhand -21.844 -6.91007
rfingers 7.12502
rthumb 4.55944 -36.841
lclavicle -1.17283e-014 6.36111e-015
lhumerus -28.6221 -8.15058 87.5273
lradius 39.1207
lwrist 25.5435
lhand -20.3974 9.08359
lfingers 7.12502
lthumb 5.95619 38.9799
rfemur -56.6273 5.43881 16.5124
rtibia 34.3582
rfoot -13.5899 -15.5336
rtoes 9.06156
lfemur -46.8451 4.63605 -21.4121
ltibia 15.8567
lfoot -2.88187 2.44604
ltoes -8.33273
152
root 46.8954 16.6704 -4.40517 -100.205 87.8727 -136.063
lowerback 22.1276 -1.15057 1.36657
upperback 4.24041 -0.878442 0.257845
thorax -7.72989 -0.333387 -0.268896
lowerneck 3.33174 -0.317377 1.9725
upperneck -19.3965 0.402296 1.39198
head -6.43503 0.134406 0.0661355
rclavicle -4.65156e-014 -5.98342e-014
rhumerus -27.0152 2.43234 -88.7127
rradius 35.4484
rwrist -4.54035
rhand -21.8483 -6.91698
rfingers 7.12502
rthumb 4.55529 -36.848
lclavicle -4.65156e-014 -5.98342e-014
lhumerus -28.6211 -8.14178 87.542
lradius 39.1116
lwrist 25.5586
lhand -20.3849 9.07647
lfingers 7.12502
lthumb 5.96819 38.9724
rfemur -56.6463 5.40476 16.541
rtibia 34.373
rfoot -13.5535 -15.5181
rtoes 8.99601
lfemur -46.8816 4.53376 -21.3345
ltibia 15.9166
lfoot -2.87554 2.546
ltoes -8.3682
153
root 46.8938 16.6704 -4.40605 -100.551 87.8481 -136.41
lowerback 22.151 -1.1596 1.37348
upperback 4.24906 -0.88621 0.268804
thorax -7.73276 -0.336705 -0.258571
lowerneck 3.32609 -0.30328 1.97018
upperneck -19.3896 0.423321 1.40185
head -6.43182 0.144232 0.0682992
rclavicle -3.18055e-014 -3.26007e-014
rhumerus -27.0127 2.42283 -88.7158
rradius 35.4331
rwrist -4.53031
rhand -21.8477 -6.92431
rfingers 7.12502
rthumb 4.55583 -36.8553
lclavicle -3.18055e-014 -3.26007e-014
lhumerus -28.6193 -8.13517 87.561
lradius 39.1056
lwrist 25.5792
lhand -20.378 9.07104
lfingers 7.12502
lthumb 5.97488 38.9668
rfemur -56.6618 5.37041 16.573
rtibia 34.3883
rfoot -13.516 -15.5054
rtoes 8.93099
lfemur -46.9192 4.42954 -21.2533
ltibia 15.9843
lfoot -2.87038 2.64826
ltoes -8.42254
154
root 46.892 16.6704 -4.40718 -100.923 87.8272 -136.783
lowerback 22.1729 -1.167 1.37849
upperback 4.2581 -0.892387 0.27899
thorax -7.73439 -0.339224 -0.248463
lowerneck 3.31887 -0.291685 1.97186
upperneck -19.3765 0.440142 1.40794
head -6.42636 0.151961 0.0688794
rclavicle -1.33186e-014 -7.35503e-015
rhumerus -27.0103 2.40835 -88.7141
rradius 35.4194
rwrist -4.52283
rhand -21.8492 -6.93177
rfingers 7.12502
rthumb 4.55438 -36.8628
lclavicle -1.33186e-014 -7.35503e-015
lhumerus -28.6165 -8.13167 87.5838
lradius 39.1003
lwrist 25.5986
lhand -20.375 9.06919
lfingers 7.12502
lthumb 5.97774 38.9649
rfemur -56.6793 5.33633 16.5984
rtibia 34.4064
rfoot -13.4806 -15.4941
rtoes 8.87969
lfemur -46.9592 4.32778 -21.181
ltibia 16.0571
lfoot -2.86512 2.74743
ltoes -8.48504
155
root 46.8899 16.6704 -4.40857 -101.288 87.8044 -137.145
lowerback 22.198 -1.17326 1.38841
upperback 4.26683 -0.895858 0.289473
thorax -7.73807 -0.340559 -0.241561
lowerneck 3.31213 -0.284195 1.97283
upperneck -19.3572 0.451153 1.41632
head -6.41906 0.156638 0.0707094
rclavicle -1.72943e-014 -3.08116e-014
rhumerus -27.0109 2.38899 -88.7071
rradius 35.408
rwrist -4.5165
rhand -21.8553 -6.93199
rfingers 7.12502
rthumb 4.5485 -36.8632
lclavicle -1.72943e-014 -3.08116e-014
lhumerus -28.6144 -8.13411 87.6103
lradius 39.0957
lwrist 25.6105
lhand -20.3738 9.06791
lfingers 7.12502
lthumb 5.97894 38.9635
rfemur -56.696 5.30053 16.6261
rtibia 34.4269
rfoot -13.4404 -15.4849
rtoes 8.82216
lfemur -47.0007 4.22898 -21.1106
ltibia 16.1356
lfoot -2.85874 2.84363
ltoes -8.55456
156
root 46.8874 16.6704 -4.4102 -101.59 87.7803 -137.443
lowerback 22.2259 -1.17812 1.39984
upperback 4.27522 -0.897042 0.300499
thorax -7.74352 -0.340836 -0.235539
lowerneck 3.30484 -0.279508 1.97929
upperneck -19.334 0.457561 1.4196
head -6.41036 0.159016 0.0703044
rclavicle -2.34566e-014 -1.92821e-014
rhumerus -27.0144 2.37124 -88.6979
rradius 35.4016
rwrist -4.51339
rhand -21.8703 -6.92061
rfingers 7.12502
rthumb 4.53399 -36.8521
lclavicle -2.34566e-014 -1.92821e-014
lhumerus -28.611 -8.13636 87.6375
lradius 39.0912
lwrist 25.6067
lhand -20.3706 9.06307
lfingers 7.12502
lthumb 5.98201 38.9586
rfemur -56.7147 5.26347 16.6573
rtibia 34.451
rfoot -13.3953 -15.4742
rtoes 8.75903
lfemur -47.0439 4.1295 -21.0377
ltibia 16.2184
lfoot -2.85207 2.9435
ltoes -8.62424
157
root 46.8847 16.6702 -4.4121 -101.887 87.7583 -137.734
lowerback 22.256 -1.18165 1.40993
upperback 4.28366 -0.896759 0.311218
thorax -7.75007 -0.340378 -0.229471
lowerneck 3.29665 -0.279077 1.98262
upperneck -19.3077 0.458313 1.4275
head -6.40058 0.158459 0.0722776
rclavicle -2.78299e-015 -2.38542e-014
rhumerus -27.0213 2.35444 -88.6861
rradius 35.4028
rwrist -4.51246
rhand -21.8866 -6.90789
rfingers 7.12502
rthumb 4.5183 -36.8397
lclavicle -2.78299e-015 -2.38542e-014
lhumerus -28.6059 -8.14041 87.6655
lradius 39.088
lwrist 25.5841
lhand -20.3612 9.0651
lfingers 7.12502
lthumb 5.99106 38.9604
rfemur -56.7355 5.22357 16.6877
rtibia 34.4781
rfoot -13.345 -15.462
rtoes 8.6913
lfemur -47.0894 4.03052 -20.9684
ltibia 16.3064
lfoot -2.84606 3.04215
ltoes -8.68807
158
root 46.8816 16.6701 -4.41434 -102.175 87.7388 -138.015
lowerback 22.2875 -1.1839 1.41902
upperback 4.29202 -0.895055 0.321455
thorax -7.7574 -0.339225 -0.223742
lowerneck 3.28314 -0.280483 1.98316
upperneck -19.2755 0.456482 1.43898
head -6.38801 0.156601 0.0760369
rclavicle -1.80894e-014 -4.33351e-014
rhumerus -27.0294 2.33474 -88.6719
rradius 35.4094
rwrist -4.51242
rhand -21.8976 -6.88952
rfingers 7.12502
rthumb 4.50762 -36.8216
lclavicle -1.80894e-014 -4.33351e-014
lhumerus -28.5973 -8.14959 87.6944
lradius 39.0855
lwrist 25.5467
lhand -20.3521 9.05777
lfingers 7.12502
lthumb 5.99989 38.9528
rfemur -56.7599 5.1751 16.7208
rtibia 34.5085
rfoot -13.2884 -15.4402
rtoes 8.61713
lfemur -47.1386 3.93185 -20.9038
ltibia 16.3969
lfoot -2.83968 3.14036
ltoes -8.75021
